<?xml version="1.0" encoding="utf-8"?>
<!-- Generator: Adobe Illustrator 16.0.0, SVG Export Plug-In . SVG Version: 6.00 Build 0)  -->
<!DOCTYPE svg PUBLIC "-//W3C//DTD SVG 1.1//EN" "http://www.w3.org/Graphics/SVG/1.1/DTD/svg11.dtd">
<svg version="1.1" id="Capa_1" xmlns="http://www.w3.org/2000/svg" xmlns:xlink="http://www.w3.org/1999/xlink" x="0px" y="0px"
	 width="270.406px" height="55.129px" viewBox="0 0 270.406 55.129" enable-background="new 0 0 270.406 55.129"
	 xml:space="preserve">
<g>
	<path fill="#0F1C4E" d="M63.46,40.237V9.591c0-1.161,0.188-1.928,0.564-2.305c0.375-0.376,1.144-0.565,2.305-0.565h0.792
		c1.162,0,1.933,0.189,2.32,0.565c0.387,0.377,0.581,1.144,0.581,2.305v29.18c0,0.835,0.192,1.439,0.58,1.816
		c0.387,0.378,0.997,0.564,1.833,0.564h13.336c1.121,0,1.869,0.188,2.247,0.564c0.375,0.378,0.563,1.124,0.563,2.242v0.581
		c0,1.14-0.188,1.894-0.563,2.258c-0.378,0.366-1.125,0.551-2.247,0.551H70.573c-2.505,0-4.317-0.559-5.435-1.677
		C64.018,44.551,63.46,42.742,63.46,40.237"/>
	<path fill="#0F1C4E" d="M91.606,44.542V19.144c0-1.138,0.187-1.893,0.564-2.258c0.376-0.367,1.124-0.55,2.242-0.55h0.825
		c1.14,0,1.892,0.183,2.259,0.55c0.366,0.365,0.549,1.12,0.549,2.258v25.398c0,1.138-0.183,1.892-0.549,2.259
		c-0.367,0.363-1.119,0.548-2.259,0.548h-0.825c-1.119,0-1.866-0.185-2.242-0.548C91.793,46.434,91.606,45.68,91.606,44.542"/>
	<path fill="#0F1C4E" d="M102.993,44.542V27.784c0-3.926,1.119-6.931,3.36-9.007c2.237-2.075,5.654-3.113,10.255-3.113
		c4.753,0,8.203,1.014,10.357,3.038c2.148,2.024,3.227,5.053,3.227,9.082v16.758c0,1.138-0.189,1.892-0.568,2.259
		c-0.378,0.363-1.127,0.548-2.252,0.548h-0.799c-1.127,0-1.877-0.185-2.256-0.548c-0.376-0.367-0.564-1.121-0.564-2.259V27.784
		c0-1.059-0.099-1.94-0.291-2.641c-0.195-0.702-0.546-1.332-1.053-1.893c-0.51-0.559-1.237-0.966-2.183-1.221
		c-0.946-0.254-2.153-0.381-3.618-0.381c-1.914,0-3.404,0.25-4.475,0.748c-1.066,0.499-1.781,1.17-2.148,2.015
		c-0.367,0.845-0.551,1.969-0.551,3.374v16.758c0,1.119-0.188,1.865-0.564,2.242c-0.376,0.378-1.135,0.564-2.272,0.564h-0.795
		c-1.119,0-1.869-0.185-2.244-0.548C103.183,46.434,102.993,45.68,102.993,44.542"/>
	<path fill="#0F1C4E" d="M135.047,44.542V6.414c0-1.137,0.19-1.896,0.571-2.272c0.38-0.376,1.135-0.564,2.264-0.564h0.772
		c1.129,0,1.884,0.188,2.264,0.564c0.38,0.377,0.569,1.136,0.569,2.272v38.128c0,1.138-0.185,1.892-0.554,2.259
		c-0.372,0.363-1.129,0.548-2.279,0.548h-0.772c-1.129,0-1.884-0.185-2.264-0.548C135.237,46.434,135.047,45.68,135.047,44.542
		 M143.596,30.772c0-0.976,0.166-1.832,0.503-2.575c0.335-0.745,1.003-1.655,1.999-2.734l5.738-6.501
		c0.937-1.058,1.787-1.761,2.55-2.105c0.763-0.345,1.849-0.521,3.25-0.521h1.07c1.402,0,2.187,0.175,2.35,0.521
		c0.019,0.059,0.032,0.122,0.032,0.183c0,0.387-0.401,1.029-1.196,1.922l-8.722,9.768c-0.84,0.834-1.258,1.578-1.258,2.228
		c0,0.549,0.398,1.282,1.193,2.199l10.038,11.568c0.797,0.894,1.193,1.535,1.193,1.924c0,0.062-0.011,0.12-0.029,0.182
		c-0.163,0.348-0.947,0.519-2.35,0.519h-1.069c-1.405,0-2.485-0.171-3.254-0.519c-0.76-0.346-1.61-1.046-2.547-2.105l-6.99-8.182
		c-0.955-1.096-1.613-2.083-1.967-2.961C143.772,32.707,143.596,31.773,143.596,30.772"/>
	<path fill="#79B92B" d="M162.372,34.652v-5.434c0-9.036,4.628-13.553,13.888-13.553c4.337,0,7.625,1.088,9.875,3.266
		c2.247,2.178,3.373,5.404,3.373,9.676c0,0.895-0.043,1.813-0.123,2.746c-0.12,1.161-0.396,1.929-0.821,2.306
		c-0.431,0.378-1.226,0.565-2.384,0.565h-17.368v1.39c0,2.307,0.695,3.957,2.092,4.955c1.394,0.998,3.679,1.501,6.852,1.501
		c2.483,0,5.19-0.364,8.12-1.089c0.446-0.109,0.824-0.166,1.129-0.166c0.406,0,0.712,0.083,0.918,0.244
		c0.345,0.328,0.516,1.029,0.516,2.105v0.794c0,1.041-0.163,1.744-0.486,2.105c-0.326,0.369-1.017,0.696-2.076,0.979
		c-2.563,0.672-5.271,1.006-8.12,1.006c-5.271,0-9.152-1.052-11.646-3.157C163.615,42.785,162.372,39.371,162.372,34.652
		 M168.812,28.973h14.621v-1.556c0-4.13-2.451-6.196-7.355-6.196c-4.845,0-7.266,2.065-7.266,6.196V28.973z"/>
	<path fill="#79B92B" d="M193.144,44.542V27.784c0-3.926,1.116-6.931,3.358-9.007c2.236-2.075,5.655-3.113,10.254-3.113
		c4.755,0,8.206,1.014,10.356,3.038c2.151,2.024,3.229,5.053,3.229,9.082v16.758c0,1.138-0.192,1.892-0.567,2.259
		c-0.38,0.363-1.132,0.548-2.255,0.548h-0.798c-1.123,0-1.875-0.185-2.255-0.548c-0.38-0.367-0.567-1.121-0.567-2.259V27.784
		c0-1.059-0.097-1.94-0.289-2.641c-0.192-0.702-0.548-1.332-1.057-1.893c-0.506-0.559-1.233-0.966-2.181-1.221
		c-0.944-0.254-2.15-0.381-3.617-0.381c-1.91,0-3.402,0.25-4.47,0.748c-1.07,0.499-1.788,1.17-2.154,2.015
		c-0.363,0.845-0.548,1.969-0.548,3.374v16.758c0,1.119-0.19,1.865-0.565,2.242c-0.377,0.378-1.137,0.564-2.276,0.564h-0.789
		c-1.121,0-1.87-0.185-2.247-0.548C193.331,46.434,193.144,45.68,193.144,44.542"/>
	<path fill="#79B92B" d="M223.943,34.652v-5.434c0-9.036,4.631-13.553,13.89-13.553c4.337,0,7.625,1.088,9.875,3.266
		c2.248,2.178,3.374,5.404,3.374,9.676c0,0.895-0.043,1.813-0.123,2.746c-0.12,1.161-0.396,1.929-0.824,2.306
		c-0.428,0.378-1.22,0.565-2.381,0.565h-17.369v1.39c0,2.307,0.698,3.957,2.09,4.955c1.396,0.998,3.679,1.501,6.854,1.501
		c2.482,0,5.19-0.364,8.12-1.089c0.446-0.109,0.823-0.166,1.131-0.166c0.404,0,0.712,0.083,0.915,0.244
		c0.346,0.328,0.517,1.029,0.517,2.105v0.794c0,1.041-0.163,1.744-0.487,2.105c-0.323,0.369-1.019,0.696-2.075,0.979
		c-2.563,0.672-5.271,1.006-8.12,1.006c-5.271,0-9.152-1.052-11.644-3.157C225.189,42.785,223.943,39.371,223.943,34.652
		 M230.385,28.973h14.621v-1.556c0-4.13-2.453-6.196-7.354-6.196c-4.845,0-7.267,2.065-7.267,6.196V28.973z"/>
	<path fill="#79B92B" d="M254.715,44.542V26.717c0-3.563,0.984-6.294,2.946-8.199c1.966-1.901,4.92-2.853,8.868-2.853
		c0.509,0,0.926,0.02,1.252,0.062c1.058,0.12,1.761,0.371,2.108,0.746c0.346,0.379,0.517,1.106,0.517,2.183v0.887
		c-0.019,1.037-0.192,1.697-0.517,1.982c-0.206,0.163-0.562,0.257-1.07,0.275c-0.305,0-0.652-0.031-1.038-0.091
		c-0.326-0.04-0.743-0.062-1.252-0.062c-2.076,0-3.488,0.438-4.243,1.311c-0.751,0.876-1.129,2.271-1.129,4.183v17.4
		c0,1.119-0.189,1.865-0.564,2.242c-0.374,0.378-1.134,0.564-2.273,0.564h-0.795c-1.118,0-1.867-0.185-2.245-0.548
		C254.905,46.434,254.715,45.68,254.715,44.542"/>
	<path fill="#79B92B" d="M92.033,10.589c-0.784-0.764-1.173-1.695-1.173-2.792c0-1.1,0.389-2.031,1.173-2.794
		c0.785-0.762,1.725-1.145,2.824-1.145s2.031,0.387,2.792,1.161c0.764,0.774,1.144,1.7,1.144,2.778c0,1.097-0.38,2.028-1.144,2.792
		c-0.761,0.762-1.693,1.145-2.792,1.145S92.818,11.352,92.033,10.589"/>
	<path fill="#79B92B" d="M23.141,41.995c-0.431,0.169-0.76,0.241-1.187,0.375c-3.577,1.129-6.507,0.898-8.043-0.634
		c-3.141-3.144-0.93-12.087,7.371-20.39c3.36-3.359,6.679-5.883,10.288-7.353c-1.816-1.306-3.199-2.011-4.126-2.5
		c-3.269,1.72-6.157,3.954-9.111,6.906c-9.434,9.436-12.67,20.982-7.368,26.285c1.681,1.68,4.056,2.57,6.863,2.57
		c1.662,0,3.471-0.308,5.381-0.912c1.214-0.383,2.345-0.797,3.579-1.396C25.53,44.187,24.153,42.967,23.141,41.995"/>
	<path fill="#79B92B" d="M44.617,11.031c-2.71-2.71-7.058-3.3-12.243-1.662c-1.209,0.383-2.903,1.083-4.133,1.68
		c1.268,0.801,2.629,2.022,3.603,2.968c0.441-0.171,1.349-0.535,1.785-0.674c3.576-1.127,6.507-0.899,8.042,0.636
		c3.142,3.142,0.933,12.085-7.371,20.387c-3.358,3.359-7.105,5.941-10.713,7.41c1.854,1.327,3.303,2.17,4.189,2.635
		c3.269-1.72,6.521-4.146,9.472-7.098C46.684,27.88,49.919,16.334,44.617,11.031"/>
	<path fill="#0F1C4E" d="M45.918,32.996c-1.392-4.875-4.658-10.059-9.195-14.596c-4.332-4.333-9.319-7.541-14.041-9.031
		C17.495,7.73,13.147,8.32,10.44,11.031c-2.592,2.592-3.241,6.743-1.828,11.686c1.392,4.876,4.658,10.06,9.197,14.597
		c4.333,4.334,9.317,7.542,14.04,9.032c1.908,0.602,3.72,0.907,5.38,0.907c2.808,0,5.182-0.889,6.863-2.571
		C46.684,42.092,47.332,37.939,45.918,32.996 M41.145,41.736c-1.534,1.53-4.465,1.763-8.042,0.634
		c-4.093-1.292-8.478-4.136-12.347-8.002c-8.301-8.304-10.512-17.247-7.371-20.389c1.534-1.535,4.463-1.765,8.043-0.636
		c4.092,1.295,8.478,4.135,12.347,8.003C42.076,29.649,44.287,38.593,41.145,41.736"/>
	<path fill="#0F1C4E" d="M48.486,30.311c-0.785-0.761-1.174-1.694-1.174-2.792c0-1.1,0.39-2.032,1.174-2.794
		c0.785-0.761,1.724-1.145,2.823-1.145c1.1,0,2.031,0.388,2.793,1.161c0.763,0.776,1.143,1.699,1.143,2.778
		c0,1.098-0.38,2.031-1.143,2.792c-0.762,0.765-1.693,1.145-2.793,1.145C50.209,31.455,49.271,31.075,48.486,30.311"/>
	<path fill="#79B92B" d="M24.835,6.73c-0.783-0.763-1.174-1.693-1.174-2.793s0.391-2.029,1.174-2.793C25.62,0.38,26.56,0,27.659,0
		c1.1,0,2.031,0.387,2.794,1.158c0.762,0.776,1.144,1.702,1.144,2.779c0,1.1-0.381,2.03-1.144,2.793
		c-0.763,0.762-1.694,1.146-2.794,1.146C26.56,7.876,25.62,7.492,24.835,6.73"/>
	<path fill="#0F1C4E" d="M1.173,30.313C0.391,29.55,0,28.616,0,27.519s0.391-2.03,1.173-2.794c0.784-0.761,1.726-1.144,2.824-1.144
		c1.099,0,2.031,0.388,2.793,1.16c0.762,0.776,1.146,1.7,1.146,2.778c0,1.098-0.384,2.031-1.146,2.794
		c-0.763,0.763-1.694,1.143-2.793,1.143C2.899,31.455,1.958,31.075,1.173,30.313"/>
	<path fill="#79B92B" d="M24.81,53.983c-0.785-0.762-1.176-1.693-1.176-2.793s0.391-2.03,1.176-2.793
		c0.782-0.765,1.724-1.145,2.823-1.145s2.029,0.388,2.792,1.158c0.764,0.775,1.144,1.701,1.144,2.779c0,1.1-0.38,2.031-1.144,2.793
		c-0.763,0.763-1.693,1.146-2.792,1.146S25.592,54.746,24.81,53.983"/>
</g>
</svg>
